G04 Layer: TopSilkscreenLayer*
G04 EasyEDA v6.5.23, 2023-05-11 23:14:51*
G04 9144401c2488441e8b95ca08e647d0b0,10*
G04 Gerber Generator version 0.2*
G04 Scale: 100 percent, Rotated: No, Reflected: No *
G04 Dimensions in millimeters *
G04 leading zeros omitted , absolute positions ,4 integer and 5 decimal *
%FSLAX45Y45*%
%MOMM*%

%ADD10C,0.1524*%
%ADD11C,0.2540*%
%ADD12C,0.1520*%
%ADD13C,0.3000*%

%LPD*%
D10*
X1109835Y-2094786D02*
G01*
X1109835Y-2203752D01*
X1109835Y-2094786D02*
G01*
X1156571Y-2094786D01*
X1172319Y-2099866D01*
X1177399Y-2105200D01*
X1182733Y-2115614D01*
X1182733Y-2125774D01*
X1177399Y-2136188D01*
X1172319Y-2141522D01*
X1156571Y-2146602D01*
X1109835Y-2146602D01*
X1146157Y-2146602D02*
G01*
X1182733Y-2203752D01*
X1222103Y-2120694D02*
G01*
X1222103Y-2115614D01*
X1227437Y-2105200D01*
X1232517Y-2099866D01*
X1242931Y-2094786D01*
X1263759Y-2094786D01*
X1274173Y-2099866D01*
X1279253Y-2105200D01*
X1284587Y-2115614D01*
X1284587Y-2125774D01*
X1279253Y-2136188D01*
X1268839Y-2151936D01*
X1217023Y-2203752D01*
X1289667Y-2203752D01*
X889922Y-2374729D02*
G01*
X889922Y-2483695D01*
X889922Y-2374729D02*
G01*
X936658Y-2374729D01*
X952406Y-2379809D01*
X957486Y-2385143D01*
X962820Y-2395557D01*
X962820Y-2405717D01*
X957486Y-2416131D01*
X952406Y-2421465D01*
X936658Y-2426545D01*
X889922Y-2426545D01*
X926244Y-2426545D02*
G01*
X962820Y-2483695D01*
X1007524Y-2374729D02*
G01*
X1064674Y-2374729D01*
X1033432Y-2416131D01*
X1048926Y-2416131D01*
X1059340Y-2421465D01*
X1064674Y-2426545D01*
X1069754Y-2442293D01*
X1069754Y-2452707D01*
X1064674Y-2468201D01*
X1054260Y-2478615D01*
X1038512Y-2483695D01*
X1023018Y-2483695D01*
X1007524Y-2478615D01*
X1002190Y-2473281D01*
X997110Y-2462867D01*
X859998Y-894681D02*
G01*
X859998Y-972659D01*
X865078Y-988153D01*
X875492Y-998567D01*
X891240Y-1003647D01*
X901654Y-1003647D01*
X917148Y-998567D01*
X927562Y-988153D01*
X932642Y-972659D01*
X932642Y-894681D01*
X966932Y-915509D02*
G01*
X977346Y-910175D01*
X993094Y-894681D01*
X993094Y-1003647D01*
X1421229Y-2034682D02*
G01*
X1410815Y-2039762D01*
X1400401Y-2050176D01*
X1395067Y-2060590D01*
X1389987Y-2076338D01*
X1389987Y-2102246D01*
X1395067Y-2117740D01*
X1400401Y-2128154D01*
X1410815Y-2138568D01*
X1421229Y-2143648D01*
X1442057Y-2143648D01*
X1452217Y-2138568D01*
X1462631Y-2128154D01*
X1467965Y-2117740D01*
X1473045Y-2102246D01*
X1473045Y-2076338D01*
X1467965Y-2060590D01*
X1462631Y-2050176D01*
X1452217Y-2039762D01*
X1442057Y-2034682D01*
X1421229Y-2034682D01*
X1436723Y-2123074D02*
G01*
X1467965Y-2154062D01*
X1507335Y-2055510D02*
G01*
X1517749Y-2050176D01*
X1533497Y-2034682D01*
X1533497Y-2143648D01*
X2360005Y-1924667D02*
G01*
X2360005Y-2002645D01*
X2365085Y-2018139D01*
X2375499Y-2028553D01*
X2391247Y-2033633D01*
X2401661Y-2033633D01*
X2417155Y-2028553D01*
X2427569Y-2018139D01*
X2432649Y-2002645D01*
X2432649Y-1924667D01*
X2472273Y-1950575D02*
G01*
X2472273Y-1945495D01*
X2477353Y-1935081D01*
X2482687Y-1929747D01*
X2493101Y-1924667D01*
X2513675Y-1924667D01*
X2524089Y-1929747D01*
X2529423Y-1935081D01*
X2534503Y-1945495D01*
X2534503Y-1955909D01*
X2529423Y-1966323D01*
X2519009Y-1981817D01*
X2466939Y-2033633D01*
X2539837Y-2033633D01*
X1618030Y-1270601D02*
G01*
X1612696Y-1260187D01*
X1602282Y-1249773D01*
X1591868Y-1244693D01*
X1571294Y-1244693D01*
X1560880Y-1249773D01*
X1550466Y-1260187D01*
X1545132Y-1270601D01*
X1540052Y-1286349D01*
X1540052Y-1312257D01*
X1545132Y-1327751D01*
X1550466Y-1338165D01*
X1560880Y-1348579D01*
X1571294Y-1353659D01*
X1591868Y-1353659D01*
X1602282Y-1348579D01*
X1612696Y-1338165D01*
X1618030Y-1327751D01*
X1652320Y-1265521D02*
G01*
X1662734Y-1260187D01*
X1678228Y-1244693D01*
X1678228Y-1353659D01*
X1618030Y-1490565D02*
G01*
X1612696Y-1480151D01*
X1602282Y-1469737D01*
X1591868Y-1464657D01*
X1571294Y-1464657D01*
X1560880Y-1469737D01*
X1550466Y-1480151D01*
X1545132Y-1490565D01*
X1540052Y-1506313D01*
X1540052Y-1532221D01*
X1545132Y-1547715D01*
X1550466Y-1558129D01*
X1560880Y-1568543D01*
X1571294Y-1573877D01*
X1591868Y-1573877D01*
X1602282Y-1568543D01*
X1612696Y-1558129D01*
X1618030Y-1547715D01*
X1657400Y-1490565D02*
G01*
X1657400Y-1485485D01*
X1662734Y-1475071D01*
X1667814Y-1469737D01*
X1678228Y-1464657D01*
X1699056Y-1464657D01*
X1709470Y-1469737D01*
X1714550Y-1475071D01*
X1719884Y-1485485D01*
X1719884Y-1495899D01*
X1714550Y-1506313D01*
X1704136Y-1521807D01*
X1652320Y-1573877D01*
X1724964Y-1573877D01*
X2858058Y-1910681D02*
G01*
X2852724Y-1900267D01*
X2842310Y-1889853D01*
X2831896Y-1884773D01*
X2811068Y-1884773D01*
X2800908Y-1889853D01*
X2790494Y-1900267D01*
X2785160Y-1910681D01*
X2780080Y-1926175D01*
X2780080Y-1952083D01*
X2785160Y-1967831D01*
X2790494Y-1978245D01*
X2800908Y-1988659D01*
X2811068Y-1993739D01*
X2831896Y-1993739D01*
X2842310Y-1988659D01*
X2852724Y-1978245D01*
X2858058Y-1967831D01*
X2902508Y-1884773D02*
G01*
X2959658Y-1884773D01*
X2928670Y-1926175D01*
X2944164Y-1926175D01*
X2954578Y-1931509D01*
X2959658Y-1936589D01*
X2964992Y-1952083D01*
X2964992Y-1962497D01*
X2959658Y-1978245D01*
X2949498Y-1988659D01*
X2933750Y-1993739D01*
X2918256Y-1993739D01*
X2902508Y-1988659D01*
X2897428Y-1983325D01*
X2892348Y-1972911D01*
X959916Y-1834735D02*
G01*
X959916Y-1943701D01*
X959916Y-1834735D02*
G01*
X1006652Y-1834735D01*
X1022400Y-1839815D01*
X1027480Y-1845149D01*
X1032814Y-1855563D01*
X1032814Y-1865723D01*
X1027480Y-1876137D01*
X1022400Y-1881471D01*
X1006652Y-1886551D01*
X959916Y-1886551D01*
X996238Y-1886551D02*
G01*
X1032814Y-1943701D01*
X1067104Y-1855563D02*
G01*
X1077518Y-1850229D01*
X1093012Y-1834735D01*
X1093012Y-1943701D01*
X2419908Y-1554573D02*
G01*
X2419908Y-1663793D01*
X2419908Y-1554573D02*
G01*
X2466644Y-1554573D01*
X2482392Y-1559907D01*
X2487472Y-1564987D01*
X2492806Y-1575401D01*
X2492806Y-1585815D01*
X2487472Y-1596229D01*
X2482392Y-1601309D01*
X2466644Y-1606643D01*
X2419908Y-1606643D01*
X2456230Y-1606643D02*
G01*
X2492806Y-1663793D01*
X2578912Y-1554573D02*
G01*
X2527096Y-1627471D01*
X2604820Y-1627471D01*
X2578912Y-1554573D02*
G01*
X2578912Y-1663793D01*
X3022064Y-2204679D02*
G01*
X3022064Y-2287737D01*
X3016730Y-2303485D01*
X3011650Y-2308565D01*
X3001236Y-2313645D01*
X2990822Y-2313645D01*
X2980408Y-2308565D01*
X2975074Y-2303485D01*
X2969994Y-2287737D01*
X2969994Y-2277323D01*
X3056354Y-2225507D02*
G01*
X3066514Y-2220173D01*
X3082262Y-2204679D01*
X3082262Y-2313645D01*
X1753113Y-749985D02*
G01*
X1644147Y-749985D01*
X1753113Y-749985D02*
G01*
X1753113Y-786307D01*
X1748033Y-802055D01*
X1737619Y-812215D01*
X1727205Y-817549D01*
X1711457Y-822629D01*
X1685549Y-822629D01*
X1670055Y-817549D01*
X1659641Y-812215D01*
X1649227Y-802055D01*
X1644147Y-786307D01*
X1644147Y-749985D01*
X1732285Y-856919D02*
G01*
X1737619Y-867333D01*
X1753113Y-883081D01*
X1644147Y-883081D01*
X2419908Y-2214719D02*
G01*
X2419908Y-2323685D01*
X2419908Y-2214719D02*
G01*
X2466644Y-2214719D01*
X2482392Y-2219799D01*
X2487472Y-2225133D01*
X2492806Y-2235547D01*
X2492806Y-2245707D01*
X2487472Y-2256121D01*
X2482392Y-2261455D01*
X2466644Y-2266535D01*
X2419908Y-2266535D01*
X2456230Y-2266535D02*
G01*
X2492806Y-2323685D01*
X2589326Y-2214719D02*
G01*
X2537510Y-2214719D01*
X2532176Y-2261455D01*
X2537510Y-2256121D01*
X2553004Y-2251041D01*
X2568498Y-2251041D01*
X2584246Y-2256121D01*
X2594660Y-2266535D01*
X2599740Y-2282283D01*
X2599740Y-2292697D01*
X2594660Y-2308191D01*
X2584246Y-2318605D01*
X2568498Y-2323685D01*
X2553004Y-2323685D01*
X2537510Y-2318605D01*
X2532176Y-2313271D01*
X2527096Y-2302857D01*
G36*
X331368Y-1083157D02*
G01*
X331368Y-1098397D01*
X508609Y-1098397D01*
X508609Y-1083157D01*
G37*
G36*
X331368Y-1663141D02*
G01*
X331368Y-1678381D01*
X508609Y-1678381D01*
X508609Y-1663141D01*
G37*
G36*
X1561998Y-548995D02*
G01*
X1561998Y-576986D01*
X1601978Y-576021D01*
X1601978Y-548995D01*
G37*
G36*
X1316990Y-548995D02*
G01*
X1316990Y-576986D01*
X1357020Y-576986D01*
X1357020Y-548995D01*
G37*
D11*
X950013Y130566D02*
G01*
X950013Y-19433D01*
X820005Y130566D02*
G01*
X950013Y130566D01*
X940823Y-289425D02*
G01*
X1109197Y-289425D01*
X790823Y-289425D02*
G01*
X809203Y-289425D01*
X630013Y-19433D02*
G01*
X1270012Y-19433D01*
X1280015Y-108239D02*
G01*
X1280015Y-200619D01*
X620011Y-108239D02*
G01*
X620011Y-200619D01*
X820005Y-19433D02*
G01*
X820005Y130566D01*
D10*
X935118Y-2257905D02*
G01*
X1071110Y-2257905D01*
X1071110Y-2042086D01*
X935118Y-2042086D01*
X744877Y-2257905D02*
G01*
X608886Y-2257905D01*
X608886Y-2042086D01*
X744877Y-2042086D01*
X675119Y-2547904D02*
G01*
X811110Y-2547904D01*
X811110Y-2332085D01*
X675119Y-2332085D01*
X484878Y-2547904D02*
G01*
X348886Y-2547904D01*
X348886Y-2332085D01*
X484878Y-2332085D01*
X316136Y-1442620D02*
G01*
X316136Y-1606362D01*
X523862Y-1606362D01*
X523862Y-1442620D01*
X316136Y-1277383D02*
G01*
X316136Y-1128885D01*
X331378Y-1113642D01*
X508619Y-1113642D01*
X523862Y-1128885D01*
X523862Y-1277383D01*
X316136Y-2022619D02*
G01*
X316136Y-2186360D01*
X523862Y-2186360D01*
X523862Y-2022619D01*
X316136Y-1857382D02*
G01*
X316136Y-1708884D01*
X331378Y-1693641D01*
X508619Y-1693641D01*
X523862Y-1708884D01*
X523862Y-1857382D01*
D11*
X671398Y-1176596D02*
G01*
X1181404Y-1176596D01*
X1181379Y-1176596D02*
G01*
X1181379Y-1586603D01*
X1181379Y-1586603D02*
G01*
X671372Y-1586603D01*
X671398Y-1301589D02*
G01*
X671398Y-1176596D01*
X671398Y-1461609D02*
G01*
X671398Y-1586603D01*
X1579981Y-2310815D02*
G01*
X1879996Y-2310815D01*
X1879996Y-1884095D01*
X1876287Y-1884095D02*
G01*
X1579996Y-1884095D01*
X1579981Y-2023795D02*
G01*
X1579981Y-1884095D01*
X1579981Y-2310815D02*
G01*
X1579981Y-2171115D01*
X2324986Y-1879996D02*
G01*
X2324986Y-2059998D01*
X2014984Y-1879996D02*
G01*
X2014984Y-2059998D01*
X1394411Y-1077498D02*
G01*
X1474414Y-1077498D01*
X1363426Y-1188473D02*
G01*
X1363426Y-1108476D01*
X1505391Y-1188473D02*
G01*
X1505391Y-1108476D01*
X1362844Y-1246063D02*
G01*
X1362844Y-1326062D01*
X1393827Y-1357045D02*
G01*
X1473824Y-1357045D01*
X1504805Y-1246063D02*
G01*
X1504805Y-1326062D01*
X1474365Y-1736501D02*
G01*
X1394363Y-1736501D01*
X1505351Y-1625526D02*
G01*
X1505351Y-1705523D01*
X1363385Y-1625526D02*
G01*
X1363385Y-1705523D01*
X1505932Y-1567936D02*
G01*
X1505932Y-1487937D01*
X1474950Y-1456954D02*
G01*
X1394952Y-1456954D01*
X1363972Y-1567936D02*
G01*
X1363972Y-1487937D01*
X2630121Y-1800890D02*
G01*
X2710124Y-1800890D01*
X2599136Y-1911865D02*
G01*
X2599136Y-1831868D01*
X2741101Y-1911865D02*
G01*
X2741101Y-1831868D01*
X2598554Y-1969455D02*
G01*
X2598554Y-2049454D01*
X2629537Y-2080437D02*
G01*
X2709534Y-2080437D01*
X2740515Y-1969455D02*
G01*
X2740515Y-2049454D01*
D10*
X822706Y-1946008D02*
G01*
X918593Y-1946008D01*
X918593Y-1813887D01*
X822706Y-1813887D01*
X737463Y-1946008D02*
G01*
X641576Y-1946008D01*
X641576Y-1813887D01*
X737463Y-1813887D01*
X2292603Y-1676006D02*
G01*
X2388491Y-1676006D01*
X2388491Y-1543885D01*
X2292603Y-1543885D01*
X2207361Y-1676006D02*
G01*
X2111474Y-1676006D01*
X2111474Y-1543885D01*
X2207361Y-1543885D01*
D11*
X2929054Y-2191255D02*
G01*
X2929054Y-2348735D01*
X2730934Y-2348735D02*
G01*
X2730934Y-2191255D01*
D10*
X1595114Y-660808D02*
G01*
X1324879Y-660808D01*
D12*
X1356982Y-932604D02*
G01*
X1324879Y-932604D01*
X1595114Y-932604D02*
G01*
X1563011Y-932604D01*
D10*
X1595114Y-567367D02*
G01*
X1595114Y-932604D01*
X1324879Y-567367D02*
G01*
X1324879Y-932604D01*
X2197455Y-2204031D02*
G01*
X2101568Y-2204031D01*
X2101568Y-2336152D01*
X2197455Y-2336152D01*
X2282698Y-2204031D02*
G01*
X2378585Y-2204031D01*
X2378585Y-2336152D01*
X2282698Y-2336152D01*
D11*
G75*
G01*
X676402Y-1301590D02*
G02*
X676402Y-1461610I-37529J-80010D01*
D13*
G75*
G01*
X1556261Y-2356536D02*
G03*
X1556515Y-2356536I127J-15001D01*
D11*
G75*
G01*
X1579982Y-2023796D02*
G02*
X1579982Y-2168576I0J-72390D01*
G75*
G01*
X1393828Y-1357051D02*
G02*
X1362845Y-1326068I0J30983D01*
G75*
G01*
X1504810Y-1326068D02*
G02*
X1473825Y-1357051I-30983J0D01*
G75*
G01*
X1363426Y-1108481D02*
G02*
X1394412Y-1077498I30983J0D01*
G75*
G01*
X1474409Y-1077498D02*
G02*
X1505392Y-1108481I0J-30983D01*
G75*
G01*
X1474950Y-1456949D02*
G02*
X1505933Y-1487932I0J-30983D01*
G75*
G01*
X1363967Y-1487932D02*
G02*
X1394953Y-1456949I30983J0D01*
G75*
G01*
X1505351Y-1705519D02*
G02*
X1474366Y-1736501I-30983J0D01*
G75*
G01*
X1394369Y-1736501D02*
G02*
X1363386Y-1705519I0J30982D01*
G75*
G01*
X2629538Y-2080443D02*
G02*
X2598555Y-2049460I0J30983D01*
G75*
G01*
X2740520Y-2049460D02*
G02*
X2709535Y-2080443I-30983J0D01*
G75*
G01*
X2599136Y-1831873D02*
G02*
X2630122Y-1800890I30983J0D01*
G75*
G01*
X2710119Y-1800890D02*
G02*
X2741102Y-1831873I0J-30983D01*
G75*
G01*
X2729995Y-2189996D02*
G02*
X2759994Y-2169996I24987J-4980D01*
G75*
G01*
X2759994Y-2369995D02*
G02*
X2729995Y-2349995I-5006J24989D01*
G75*
G01*
X2899994Y-2369995D02*
G03*
X2929994Y-2349995I5007J24989D01*
G75*
G01*
X2929994Y-2189996D02*
G03*
X2899994Y-2169996I-24993J-4989D01*
G75*
G01
X640410Y-1631612D02*
G03X640410Y-1631612I-17018J0D01*
G75*
G01
X2017598Y-2109691D02*
G03X2017598Y-2109691I-12700J0D01*
M02*
