G04 Layer: TopLayer*
G04 EasyEDA v6.5.23, 2023-05-11 23:14:51*
G04 9144401c2488441e8b95ca08e647d0b0,10*
G04 Gerber Generator version 0.2*
G04 Scale: 100 percent, Rotated: No, Reflected: No *
G04 Dimensions in millimeters *
G04 leading zeros omitted , absolute positions ,4 integer and 5 decimal *
%FSLAX45Y45*%
%MOMM*%

%AMMACRO1*21,1,$1,$2,0,0,$3*%
%ADD10C,0.5000*%
%ADD11C,0.2540*%
%ADD12C,0.4000*%
%ADD13C,0.3500*%
%ADD14R,0.9000X2.0000*%
%ADD15R,1.1000X0.9300*%
%ADD16MACRO1,1.701X1.2075X90.0000*%
%ADD17MACRO1,1.62X1.485X0.0000*%
%ADD18R,1.6200X1.4850*%
%ADD19C,2.0000*%
%ADD20R,0.6000X1.2000*%
%ADD21R,3.3000X2.0000*%
%ADD22O,0.3999992X1.499997*%
%ADD23R,0.5500X1.0000*%
%ADD24R,0.9000X0.8000*%
%ADD25MACRO1,0.864X0.8065X90.0000*%
%ADD26R,1.2700X0.6350*%
%ADD27R,1.7000X1.6000*%
%ADD28MACRO1,0.864X0.8065X-90.0000*%
%ADD29C,0.1000*%
%ADD30C,3.0000*%
%ADD31C,0.6096*%
%ADD32C,0.6100*%
%ADD33C,0.0170*%

%LPD*%
G36*
X36068Y-2599994D02*
G01*
X32156Y-2599232D01*
X28905Y-2597048D01*
X26670Y-2593746D01*
X25908Y-2589834D01*
X25908Y-250748D01*
X26822Y-230022D01*
X29413Y-210667D01*
X33680Y-191566D01*
X39624Y-172974D01*
X47142Y-154940D01*
X56184Y-137617D01*
X66700Y-121158D01*
X78638Y-105664D01*
X91897Y-91287D01*
X106324Y-78079D01*
X121869Y-66243D01*
X138379Y-55778D01*
X155702Y-46786D01*
X173786Y-39319D01*
X192430Y-33477D01*
X211531Y-29260D01*
X230936Y-26771D01*
X250748Y-25908D01*
X5349240Y-25908D01*
X5369966Y-26873D01*
X5389321Y-29464D01*
X5408422Y-33731D01*
X5427014Y-39624D01*
X5445099Y-47142D01*
X5462422Y-56184D01*
X5478881Y-66751D01*
X5494324Y-78638D01*
X5508752Y-91897D01*
X5521909Y-106324D01*
X5533796Y-121869D01*
X5544261Y-138379D01*
X5553252Y-155702D01*
X5560669Y-173786D01*
X5566511Y-192430D01*
X5570728Y-211531D01*
X5573217Y-230936D01*
X5574080Y-250748D01*
X5574080Y-2589834D01*
X5573318Y-2593746D01*
X5571083Y-2597048D01*
X5567832Y-2599232D01*
X5563920Y-2599994D01*
G37*

%LPC*%
G36*
X1275588Y-113334D02*
G01*
X1296162Y-113334D01*
X1296162Y-70561D01*
X1249121Y-70561D01*
X1249121Y-86868D01*
X1249832Y-93167D01*
X1251712Y-98653D01*
X1254810Y-103530D01*
X1258874Y-107645D01*
X1263802Y-110744D01*
X1269238Y-112623D01*
G37*
G36*
X1363878Y-113334D02*
G01*
X1384452Y-113334D01*
X1390751Y-112623D01*
X1396238Y-110744D01*
X1401114Y-107645D01*
X1405229Y-103530D01*
X1408277Y-98653D01*
X1410208Y-93167D01*
X1410919Y-86868D01*
X1410919Y-70561D01*
X1363878Y-70561D01*
G37*
G36*
X515569Y-113334D02*
G01*
X536143Y-113334D01*
X536143Y-70561D01*
X489102Y-70561D01*
X489102Y-86868D01*
X489813Y-93167D01*
X491743Y-98653D01*
X494792Y-103530D01*
X498906Y-107645D01*
X503783Y-110744D01*
X509270Y-112623D01*
G37*
G36*
X603859Y-113334D02*
G01*
X624433Y-113334D01*
X630783Y-112623D01*
X636219Y-110744D01*
X641146Y-107645D01*
X645210Y-103530D01*
X648309Y-98653D01*
X650189Y-93167D01*
X650900Y-86868D01*
X650900Y-70561D01*
X603859Y-70561D01*
G37*
G36*
X1713839Y-2517698D02*
G01*
X1717903Y-2516124D01*
X1724660Y-2511958D01*
X1728114Y-2510586D01*
X1731873Y-2510586D01*
X1735328Y-2511958D01*
X1742084Y-2516124D01*
X1746148Y-2517698D01*
X1746148Y-2463901D01*
X1713839Y-2463901D01*
G37*
G36*
X1363827Y-238302D02*
G01*
X1410868Y-238302D01*
X1410868Y-221996D01*
X1410157Y-215696D01*
X1408277Y-210210D01*
X1405178Y-205333D01*
X1401114Y-201218D01*
X1396187Y-198120D01*
X1390751Y-196240D01*
X1384401Y-195529D01*
X1363827Y-195529D01*
G37*
G36*
X489102Y-238353D02*
G01*
X536143Y-238353D01*
X536143Y-195529D01*
X515569Y-195529D01*
X509270Y-196240D01*
X503783Y-198170D01*
X498906Y-201218D01*
X494792Y-205333D01*
X491743Y-210210D01*
X489813Y-215696D01*
X489102Y-221996D01*
G37*
G36*
X1363827Y-340360D02*
G01*
X1384401Y-340360D01*
X1390751Y-339598D01*
X1396187Y-337718D01*
X1401114Y-334619D01*
X1405178Y-330555D01*
X1408277Y-325628D01*
X1410157Y-320192D01*
X1410868Y-313842D01*
X1410868Y-297535D01*
X1363827Y-297535D01*
G37*
G36*
X515569Y-340360D02*
G01*
X536143Y-340360D01*
X536143Y-297535D01*
X489102Y-297535D01*
X489102Y-313842D01*
X489813Y-320192D01*
X491743Y-325628D01*
X494792Y-330555D01*
X498906Y-334619D01*
X503783Y-337718D01*
X509270Y-339648D01*
G37*
G36*
X1713839Y-2376170D02*
G01*
X1746148Y-2376170D01*
X1746148Y-2322423D01*
X1742084Y-2323998D01*
X1735328Y-2328164D01*
X1731873Y-2329484D01*
X1728114Y-2329484D01*
X1724660Y-2328164D01*
X1717903Y-2323998D01*
X1713839Y-2322423D01*
G37*
G36*
X2868117Y-2368296D02*
G01*
X2892907Y-2368296D01*
X2899257Y-2367584D01*
X2904693Y-2365654D01*
X2909620Y-2362606D01*
X2913684Y-2358491D01*
X2916783Y-2353614D01*
X2918714Y-2348128D01*
X2919425Y-2341829D01*
X2919425Y-2332888D01*
X2868117Y-2332888D01*
G37*
G36*
X2767076Y-2368296D02*
G01*
X2791917Y-2368296D01*
X2791917Y-2332888D01*
X2740609Y-2332888D01*
X2740609Y-2341829D01*
X2741320Y-2348128D01*
X2743200Y-2353614D01*
X2746298Y-2358491D01*
X2750362Y-2362606D01*
X2755290Y-2365654D01*
X2760726Y-2367584D01*
G37*
G36*
X2341930Y-2339187D02*
G01*
X2355138Y-2339187D01*
X2361488Y-2338476D01*
X2366924Y-2336596D01*
X2371852Y-2333498D01*
X2375916Y-2329434D01*
X2379014Y-2324506D01*
X2380945Y-2319070D01*
X2381656Y-2312720D01*
X2381656Y-2298039D01*
X2341930Y-2298039D01*
G37*
G36*
X5364530Y-415848D02*
G01*
X5382564Y-414426D01*
X5400395Y-411175D01*
X5417769Y-406146D01*
X5434533Y-399288D01*
X5450535Y-390804D01*
X5465572Y-380695D01*
X5479440Y-369112D01*
X5492089Y-356108D01*
X5503367Y-341934D01*
X5513070Y-326644D01*
X5521147Y-310438D01*
X5527548Y-293471D01*
X5532170Y-275996D01*
X5534964Y-258114D01*
X5535879Y-240029D01*
X5534964Y-221894D01*
X5532170Y-204012D01*
X5527548Y-186537D01*
X5521147Y-169570D01*
X5513070Y-153365D01*
X5503367Y-138074D01*
X5492089Y-123901D01*
X5479440Y-110896D01*
X5465572Y-99314D01*
X5450535Y-89204D01*
X5434533Y-80721D01*
X5417769Y-73863D01*
X5400395Y-68834D01*
X5382564Y-65582D01*
X5364530Y-64160D01*
X5346395Y-64617D01*
X5328462Y-66954D01*
X5310835Y-71120D01*
X5293715Y-77063D01*
X5277307Y-84734D01*
X5261813Y-94081D01*
X5247284Y-104952D01*
X5234025Y-117246D01*
X5222036Y-130860D01*
X5211572Y-145592D01*
X5202631Y-161340D01*
X5195417Y-177952D01*
X5189880Y-195224D01*
X5186172Y-212953D01*
X5184343Y-230936D01*
X5184343Y-249072D01*
X5186172Y-267055D01*
X5189880Y-284784D01*
X5195417Y-302056D01*
X5202631Y-318668D01*
X5211572Y-334416D01*
X5222036Y-349148D01*
X5234025Y-362762D01*
X5247284Y-375056D01*
X5261813Y-385927D01*
X5277307Y-395274D01*
X5293715Y-402945D01*
X5310835Y-408889D01*
X5328462Y-413054D01*
X5346395Y-415391D01*
G37*
G36*
X244551Y-415848D02*
G01*
X262585Y-414426D01*
X280416Y-411175D01*
X297789Y-406146D01*
X314553Y-399288D01*
X330555Y-390804D01*
X345592Y-380695D01*
X359460Y-369112D01*
X372110Y-356108D01*
X383387Y-341934D01*
X393090Y-326644D01*
X401167Y-310438D01*
X407568Y-293471D01*
X412191Y-275996D01*
X414985Y-258114D01*
X415899Y-240029D01*
X414985Y-221894D01*
X412191Y-204012D01*
X407568Y-186537D01*
X401167Y-169570D01*
X393090Y-153365D01*
X383387Y-138074D01*
X372110Y-123901D01*
X359460Y-110896D01*
X345592Y-99314D01*
X330555Y-89204D01*
X314553Y-80721D01*
X297789Y-73863D01*
X280416Y-68834D01*
X262585Y-65582D01*
X244551Y-64160D01*
X226415Y-64617D01*
X208483Y-66954D01*
X190855Y-71120D01*
X173736Y-77063D01*
X157327Y-84734D01*
X141833Y-94081D01*
X127304Y-104952D01*
X114046Y-117246D01*
X102057Y-130860D01*
X91592Y-145592D01*
X82651Y-161340D01*
X75438Y-177952D01*
X69900Y-195224D01*
X66192Y-212953D01*
X64363Y-230936D01*
X64363Y-249072D01*
X66192Y-267055D01*
X69900Y-284784D01*
X75438Y-302056D01*
X82651Y-318668D01*
X91592Y-334416D01*
X102057Y-349148D01*
X114046Y-362762D01*
X127304Y-375056D01*
X141833Y-385927D01*
X157327Y-395274D01*
X173736Y-402945D01*
X190855Y-408889D01*
X208483Y-413054D01*
X226415Y-415391D01*
G37*
G36*
X1375562Y-659892D02*
G01*
X1544421Y-659892D01*
X1550771Y-659180D01*
X1556207Y-657301D01*
X1561134Y-654202D01*
X1565198Y-650087D01*
X1568297Y-645210D01*
X1570177Y-639724D01*
X1570888Y-633425D01*
X1570888Y-474573D01*
X1570177Y-468223D01*
X1568297Y-462788D01*
X1565198Y-457860D01*
X1561134Y-453796D01*
X1556207Y-450697D01*
X1550771Y-448818D01*
X1544421Y-448106D01*
X1375562Y-448106D01*
X1369263Y-448818D01*
X1365961Y-449935D01*
X1362252Y-450494D01*
X1358544Y-449681D01*
X1355445Y-447548D01*
X1265326Y-357378D01*
X1263040Y-353923D01*
X1262329Y-349808D01*
X1263345Y-345795D01*
X1265885Y-342493D01*
X1269492Y-340512D01*
X1273606Y-340106D01*
X1275537Y-340360D01*
X1296111Y-340360D01*
X1296111Y-297535D01*
X1256080Y-297535D01*
X1252169Y-296773D01*
X1248867Y-294538D01*
X1246682Y-291236D01*
X1245920Y-287375D01*
X1245920Y-248462D01*
X1246682Y-244602D01*
X1248867Y-241300D01*
X1252169Y-239115D01*
X1256080Y-238302D01*
X1296111Y-238302D01*
X1296111Y-195529D01*
X1275537Y-195529D01*
X1269238Y-196240D01*
X1263751Y-198120D01*
X1258874Y-201218D01*
X1254760Y-205333D01*
X1251712Y-210210D01*
X1250594Y-213309D01*
X1248816Y-216458D01*
X1246022Y-218795D01*
X1242618Y-220014D01*
X1239012Y-219913D01*
X1235608Y-218541D01*
X1231239Y-215798D01*
X1225753Y-213867D01*
X1219454Y-213156D01*
X1161491Y-213156D01*
X1157732Y-212445D01*
X1154480Y-210362D01*
X1152245Y-207264D01*
X1151331Y-203555D01*
X1151890Y-199745D01*
X1153769Y-196392D01*
X1155293Y-194614D01*
X1160932Y-185470D01*
X1165047Y-175514D01*
X1167536Y-165100D01*
X1168349Y-154432D01*
X1167536Y-143713D01*
X1165047Y-133299D01*
X1160932Y-123342D01*
X1155293Y-114198D01*
X1148334Y-106070D01*
X1140206Y-99110D01*
X1131062Y-93472D01*
X1121105Y-89357D01*
X1110691Y-86868D01*
X1100023Y-86055D01*
X1089304Y-86868D01*
X1078890Y-89357D01*
X1068933Y-93472D01*
X1059789Y-99110D01*
X1051661Y-106070D01*
X1044702Y-114198D01*
X1039063Y-123342D01*
X1034948Y-133299D01*
X1032459Y-143713D01*
X1031646Y-154432D01*
X1032459Y-165100D01*
X1034948Y-175514D01*
X1039063Y-185470D01*
X1044702Y-194614D01*
X1051661Y-202742D01*
X1059789Y-209702D01*
X1068933Y-215341D01*
X1078890Y-219456D01*
X1089304Y-221945D01*
X1095451Y-222402D01*
X1099362Y-223520D01*
X1102512Y-226110D01*
X1104392Y-229666D01*
X1104747Y-233679D01*
X1104087Y-239623D01*
X1104087Y-438505D01*
X1104798Y-444804D01*
X1106728Y-450291D01*
X1109776Y-455168D01*
X1113891Y-459282D01*
X1118768Y-462381D01*
X1124254Y-464261D01*
X1130554Y-464972D01*
X1219454Y-464972D01*
X1223060Y-464566D01*
X1226108Y-464667D01*
X1228953Y-465683D01*
X1231392Y-467461D01*
X1346098Y-582218D01*
X1348333Y-585470D01*
X1349095Y-589381D01*
X1349095Y-633425D01*
X1349806Y-639724D01*
X1351737Y-645210D01*
X1354785Y-650087D01*
X1358900Y-654202D01*
X1363776Y-657301D01*
X1369263Y-659180D01*
G37*
G36*
X2755646Y-954938D02*
G01*
X2811729Y-954938D01*
X2810764Y-952804D01*
X2802890Y-939800D01*
X2793492Y-927811D01*
X2782773Y-917092D01*
X2770784Y-907694D01*
X2757779Y-899820D01*
X2755646Y-898855D01*
G37*
G36*
X2586837Y-954938D02*
G01*
X2642920Y-954938D01*
X2642920Y-898855D01*
X2640787Y-899820D01*
X2627782Y-907694D01*
X2615793Y-917092D01*
X2605074Y-927811D01*
X2595676Y-939800D01*
X2587802Y-952804D01*
G37*
G36*
X2341930Y-2242159D02*
G01*
X2381656Y-2242159D01*
X2381656Y-2227478D01*
X2380945Y-2221128D01*
X2379014Y-2215692D01*
X2375916Y-2210765D01*
X2371852Y-2206701D01*
X2366924Y-2203602D01*
X2361488Y-2201722D01*
X2355138Y-2201011D01*
X2341930Y-2201011D01*
G37*
G36*
X2642920Y-1123746D02*
G01*
X2642920Y-1067663D01*
X2586837Y-1067663D01*
X2587802Y-1069797D01*
X2595676Y-1082802D01*
X2605074Y-1094790D01*
X2615793Y-1105509D01*
X2627782Y-1114907D01*
X2640787Y-1122781D01*
G37*
G36*
X731266Y-1949043D02*
G01*
X744524Y-1949043D01*
X750824Y-1948332D01*
X756310Y-1946452D01*
X761187Y-1943354D01*
X765302Y-1939289D01*
X768350Y-1934362D01*
X770483Y-1928317D01*
X772617Y-1924761D01*
X776020Y-1922322D01*
X780084Y-1921510D01*
X784148Y-1922322D01*
X787552Y-1924761D01*
X789686Y-1928317D01*
X791819Y-1934362D01*
X794867Y-1939289D01*
X798982Y-1943354D01*
X803859Y-1946452D01*
X809345Y-1948332D01*
X815644Y-1949043D01*
X895146Y-1949043D01*
X901496Y-1948332D01*
X906932Y-1946452D01*
X911860Y-1943354D01*
X915924Y-1939289D01*
X919022Y-1934362D01*
X920953Y-1928926D01*
X921664Y-1922576D01*
X921664Y-1837334D01*
X920953Y-1830984D01*
X919022Y-1825548D01*
X915365Y-1819706D01*
X914196Y-1817116D01*
X913790Y-1814322D01*
X913790Y-1750364D01*
X914196Y-1747570D01*
X916787Y-1741881D01*
X918921Y-1738325D01*
X922324Y-1735886D01*
X926388Y-1735074D01*
X930452Y-1735886D01*
X933856Y-1738325D01*
X935990Y-1741881D01*
X936599Y-1743659D01*
X939698Y-1748536D01*
X943762Y-1752650D01*
X948690Y-1755698D01*
X954125Y-1757629D01*
X960475Y-1758340D01*
X968552Y-1758340D01*
X968552Y-1708810D01*
X928979Y-1708810D01*
X925068Y-1707997D01*
X921766Y-1705813D01*
X919581Y-1702511D01*
X918819Y-1698650D01*
X918819Y-1646224D01*
X919581Y-1642364D01*
X921766Y-1639062D01*
X925068Y-1636877D01*
X928979Y-1636064D01*
X968552Y-1636064D01*
X968552Y-1586534D01*
X960475Y-1586534D01*
X954125Y-1587246D01*
X948690Y-1589176D01*
X943762Y-1592224D01*
X939698Y-1596339D01*
X936599Y-1601216D01*
X935990Y-1602994D01*
X933856Y-1606550D01*
X930452Y-1608988D01*
X926388Y-1609801D01*
X922324Y-1608988D01*
X918921Y-1606550D01*
X916787Y-1602994D01*
X916178Y-1601216D01*
X913079Y-1596339D01*
X909015Y-1592224D01*
X904087Y-1589176D01*
X898652Y-1587246D01*
X892302Y-1586534D01*
X833475Y-1586534D01*
X827125Y-1587246D01*
X821690Y-1589176D01*
X816762Y-1592224D01*
X812698Y-1596339D01*
X809599Y-1601216D01*
X808990Y-1602994D01*
X806856Y-1606550D01*
X803452Y-1608988D01*
X799388Y-1609801D01*
X795324Y-1608988D01*
X791921Y-1606550D01*
X789787Y-1602994D01*
X789178Y-1601216D01*
X786079Y-1596339D01*
X782015Y-1592224D01*
X777087Y-1589176D01*
X771652Y-1587246D01*
X765302Y-1586534D01*
X757224Y-1586534D01*
X757224Y-1636064D01*
X796798Y-1636064D01*
X800709Y-1636877D01*
X804011Y-1639062D01*
X806196Y-1642364D01*
X806958Y-1646224D01*
X806958Y-1698650D01*
X806196Y-1702511D01*
X804011Y-1705813D01*
X800709Y-1707997D01*
X796798Y-1708810D01*
X757224Y-1708810D01*
X757224Y-1758340D01*
X765302Y-1758340D01*
X771652Y-1757629D01*
X777087Y-1755698D01*
X782015Y-1752650D01*
X786079Y-1748536D01*
X789178Y-1743659D01*
X789787Y-1741881D01*
X791921Y-1738325D01*
X795324Y-1735886D01*
X799388Y-1735074D01*
X803452Y-1735886D01*
X806856Y-1738325D01*
X808990Y-1741881D01*
X811580Y-1747570D01*
X811987Y-1750364D01*
X811987Y-1803400D01*
X811123Y-1807464D01*
X808736Y-1810867D01*
X803859Y-1813458D01*
X798982Y-1816557D01*
X794867Y-1820621D01*
X791819Y-1825548D01*
X789686Y-1831593D01*
X787552Y-1835150D01*
X784148Y-1837588D01*
X780084Y-1838401D01*
X776020Y-1837588D01*
X772617Y-1835150D01*
X770483Y-1831593D01*
X768350Y-1825548D01*
X765302Y-1820621D01*
X761187Y-1816557D01*
X756310Y-1813458D01*
X750824Y-1811578D01*
X744524Y-1810867D01*
X731266Y-1810867D01*
X731266Y-1852015D01*
X779018Y-1852015D01*
X782929Y-1852777D01*
X786180Y-1854962D01*
X788416Y-1858264D01*
X789178Y-1862175D01*
X789178Y-1897735D01*
X788416Y-1901647D01*
X786180Y-1904949D01*
X782929Y-1907133D01*
X779018Y-1907895D01*
X731266Y-1907895D01*
G37*
G36*
X2755646Y-1123746D02*
G01*
X2757779Y-1122781D01*
X2770784Y-1114907D01*
X2782773Y-1105509D01*
X2793492Y-1094790D01*
X2802890Y-1082802D01*
X2810764Y-1069797D01*
X2811729Y-1067663D01*
X2755646Y-1067663D01*
G37*
G36*
X761949Y-1507540D02*
G01*
X837539Y-1507540D01*
X837539Y-1437944D01*
X735482Y-1437944D01*
X735482Y-1481023D01*
X736193Y-1487373D01*
X738124Y-1492808D01*
X741172Y-1497736D01*
X745286Y-1501800D01*
X750163Y-1504899D01*
X755650Y-1506778D01*
G37*
G36*
X372313Y-2550972D02*
G01*
X491947Y-2550972D01*
X498246Y-2550261D01*
X503732Y-2548331D01*
X508609Y-2545283D01*
X512724Y-2541168D01*
X515772Y-2536291D01*
X517702Y-2530805D01*
X518414Y-2524506D01*
X518414Y-2355545D01*
X517702Y-2349195D01*
X515772Y-2343759D01*
X512724Y-2338832D01*
X508609Y-2334768D01*
X503732Y-2331669D01*
X498246Y-2329738D01*
X491947Y-2329027D01*
X485698Y-2329027D01*
X481787Y-2328265D01*
X478485Y-2326081D01*
X476300Y-2322779D01*
X475538Y-2318867D01*
X475538Y-2199589D01*
X476300Y-2195677D01*
X478485Y-2192375D01*
X481787Y-2190191D01*
X485698Y-2189429D01*
X500430Y-2189429D01*
X506730Y-2188718D01*
X512216Y-2186787D01*
X517093Y-2183688D01*
X521208Y-2179624D01*
X524306Y-2174697D01*
X526186Y-2169261D01*
X526897Y-2162911D01*
X526897Y-2041804D01*
X527761Y-2037740D01*
X530098Y-2034387D01*
X533603Y-2032254D01*
X537667Y-2031644D01*
X541680Y-2032711D01*
X544880Y-2035302D01*
X549656Y-2041042D01*
X602843Y-2094280D01*
X605078Y-2097532D01*
X605840Y-2101443D01*
X605840Y-2234488D01*
X606552Y-2240788D01*
X608482Y-2246274D01*
X611530Y-2251151D01*
X615645Y-2255266D01*
X620522Y-2258314D01*
X626008Y-2260244D01*
X632307Y-2260955D01*
X751941Y-2260955D01*
X758240Y-2260244D01*
X763727Y-2258314D01*
X768604Y-2255266D01*
X772718Y-2251151D01*
X775766Y-2246274D01*
X777697Y-2240788D01*
X778408Y-2234488D01*
X778408Y-2065528D01*
X777697Y-2059178D01*
X775766Y-2053742D01*
X772718Y-2048814D01*
X768604Y-2044750D01*
X763727Y-2041652D01*
X758240Y-2039772D01*
X751941Y-2039061D01*
X674624Y-2039061D01*
X670763Y-2038248D01*
X667461Y-2036064D01*
X626364Y-1995017D01*
X624179Y-1991715D01*
X623417Y-1987804D01*
X623417Y-1941372D01*
X624332Y-1937156D01*
X626922Y-1933702D01*
X630732Y-1931619D01*
X635101Y-1931365D01*
X639114Y-1932889D01*
X642162Y-1935988D01*
X644245Y-1939289D01*
X648309Y-1943354D01*
X653237Y-1946452D01*
X658672Y-1948332D01*
X665022Y-1949043D01*
X678230Y-1949043D01*
X678230Y-1907895D01*
X633577Y-1907895D01*
X629666Y-1907133D01*
X626364Y-1904949D01*
X624179Y-1901647D01*
X623417Y-1897735D01*
X623417Y-1862175D01*
X624179Y-1858264D01*
X626364Y-1854962D01*
X629666Y-1852777D01*
X633577Y-1852015D01*
X678230Y-1852015D01*
X678230Y-1810867D01*
X665022Y-1810867D01*
X658672Y-1811578D01*
X653237Y-1813458D01*
X648309Y-1816557D01*
X644245Y-1820621D01*
X642162Y-1823923D01*
X639114Y-1827022D01*
X635101Y-1828546D01*
X630732Y-1828292D01*
X626922Y-1826209D01*
X624332Y-1822754D01*
X623417Y-1818538D01*
X623366Y-1568348D01*
X622198Y-1560068D01*
X619658Y-1552498D01*
X615797Y-1545488D01*
X610362Y-1538986D01*
X548741Y-1477416D01*
X541985Y-1472336D01*
X536803Y-1469593D01*
X533603Y-1468424D01*
X530098Y-1466291D01*
X527761Y-1462887D01*
X526897Y-1458874D01*
X526897Y-1435557D01*
X526288Y-1430070D01*
X526338Y-1427480D01*
X527050Y-1424940D01*
X529437Y-1419352D01*
X530707Y-1413256D01*
X530910Y-1409750D01*
X530910Y-1310284D01*
X530199Y-1303578D01*
X529437Y-1300632D01*
X527050Y-1295095D01*
X526338Y-1292555D01*
X526288Y-1289913D01*
X526897Y-1284427D01*
X526897Y-1137056D01*
X526186Y-1130757D01*
X524306Y-1125270D01*
X521208Y-1120394D01*
X517093Y-1116279D01*
X512216Y-1113231D01*
X506730Y-1111300D01*
X500430Y-1110589D01*
X473506Y-1110589D01*
X469595Y-1109827D01*
X466293Y-1107643D01*
X464108Y-1104341D01*
X463346Y-1100429D01*
X463346Y-1042162D01*
X464108Y-1038301D01*
X466293Y-1034999D01*
X484885Y-1016508D01*
X488188Y-1014323D01*
X492048Y-1013561D01*
X670610Y-1013561D01*
X674776Y-1014425D01*
X678180Y-1016914D01*
X680313Y-1020622D01*
X680720Y-1024839D01*
X679958Y-1031341D01*
X679958Y-1150213D01*
X680669Y-1156512D01*
X682599Y-1161999D01*
X684987Y-1166266D01*
X685800Y-1171346D01*
X686714Y-1175562D01*
X688035Y-1179830D01*
X689762Y-1183894D01*
X691794Y-1187856D01*
X694182Y-1191615D01*
X696874Y-1195120D01*
X700024Y-1198575D01*
X747064Y-1245616D01*
X749147Y-1248562D01*
X750062Y-1252118D01*
X749655Y-1255725D01*
X747979Y-1258925D01*
X741172Y-1265478D01*
X738124Y-1270406D01*
X736193Y-1275842D01*
X735482Y-1282192D01*
X735482Y-1325270D01*
X837539Y-1325270D01*
X837539Y-1277569D01*
X838301Y-1273708D01*
X840536Y-1270406D01*
X843787Y-1268171D01*
X847699Y-1267409D01*
X1005078Y-1267409D01*
X1008989Y-1268171D01*
X1012240Y-1270406D01*
X1014476Y-1273708D01*
X1015237Y-1277569D01*
X1015237Y-1325270D01*
X1081227Y-1325270D01*
X1085088Y-1326032D01*
X1088390Y-1328216D01*
X1090625Y-1331518D01*
X1091387Y-1335430D01*
X1091387Y-1427784D01*
X1090625Y-1431696D01*
X1088390Y-1434998D01*
X1085088Y-1437182D01*
X1081227Y-1437944D01*
X1015237Y-1437944D01*
X1015237Y-1507540D01*
X1081227Y-1507540D01*
X1085088Y-1508302D01*
X1088390Y-1510487D01*
X1090625Y-1513789D01*
X1091387Y-1517700D01*
X1091387Y-1546809D01*
X1090625Y-1550720D01*
X1088390Y-1553972D01*
X1081024Y-1561338D01*
X1077874Y-1564792D01*
X1075182Y-1568297D01*
X1072794Y-1572056D01*
X1070762Y-1576019D01*
X1069035Y-1580083D01*
X1067714Y-1584350D01*
X1066800Y-1588516D01*
X1066190Y-1595120D01*
X1064666Y-1599539D01*
X1062990Y-1602994D01*
X1060856Y-1606550D01*
X1057452Y-1608988D01*
X1053388Y-1609801D01*
X1049324Y-1608988D01*
X1045921Y-1606550D01*
X1043787Y-1602994D01*
X1043178Y-1601216D01*
X1040079Y-1596339D01*
X1036015Y-1592224D01*
X1031087Y-1589176D01*
X1025652Y-1587246D01*
X1019302Y-1586534D01*
X1011224Y-1586534D01*
X1011224Y-1636064D01*
X1050798Y-1636064D01*
X1054709Y-1636877D01*
X1058011Y-1639062D01*
X1060196Y-1642364D01*
X1060958Y-1646224D01*
X1060958Y-1698650D01*
X1060196Y-1702511D01*
X1058011Y-1705813D01*
X1054709Y-1707997D01*
X1050798Y-1708810D01*
X1011224Y-1708810D01*
X1011224Y-1758340D01*
X1019302Y-1758340D01*
X1025652Y-1757629D01*
X1031087Y-1755698D01*
X1036015Y-1752650D01*
X1040079Y-1748536D01*
X1043178Y-1743659D01*
X1043787Y-1741881D01*
X1045921Y-1738325D01*
X1049324Y-1735886D01*
X1053388Y-1735074D01*
X1057452Y-1735886D01*
X1060856Y-1738325D01*
X1062990Y-1741881D01*
X1063599Y-1743659D01*
X1066698Y-1748536D01*
X1070508Y-1752396D01*
X1072692Y-1755648D01*
X1073505Y-1759559D01*
X1073505Y-1998827D01*
X1072692Y-2002688D01*
X1070508Y-2005990D01*
X1040434Y-2036064D01*
X1037132Y-2038248D01*
X1033221Y-2039061D01*
X928065Y-2039061D01*
X921766Y-2039772D01*
X916279Y-2041652D01*
X911402Y-2044750D01*
X907287Y-2048814D01*
X904189Y-2053742D01*
X902309Y-2059178D01*
X901598Y-2065528D01*
X901598Y-2200706D01*
X900836Y-2204567D01*
X898601Y-2207869D01*
X780440Y-2326081D01*
X777138Y-2328265D01*
X773226Y-2329027D01*
X668070Y-2329027D01*
X661771Y-2329738D01*
X656285Y-2331669D01*
X651408Y-2334768D01*
X647293Y-2338832D01*
X644194Y-2343759D01*
X642315Y-2349195D01*
X641604Y-2355545D01*
X641604Y-2524506D01*
X642315Y-2530805D01*
X644194Y-2536291D01*
X647293Y-2541168D01*
X651408Y-2545283D01*
X656285Y-2548331D01*
X661771Y-2550261D01*
X668070Y-2550972D01*
X787704Y-2550972D01*
X794004Y-2550261D01*
X799439Y-2548331D01*
X804367Y-2545283D01*
X808431Y-2541168D01*
X811530Y-2536291D01*
X813460Y-2530805D01*
X814171Y-2524506D01*
X814171Y-2419299D01*
X814933Y-2415438D01*
X817118Y-2412136D01*
X965352Y-2263952D01*
X968603Y-2261717D01*
X972515Y-2260955D01*
X1047699Y-2260955D01*
X1053998Y-2260244D01*
X1059484Y-2258314D01*
X1064361Y-2255266D01*
X1068476Y-2251151D01*
X1071524Y-2246274D01*
X1073454Y-2240788D01*
X1074166Y-2234488D01*
X1074166Y-2129332D01*
X1074928Y-2125421D01*
X1077112Y-2122119D01*
X1148740Y-2050491D01*
X1153769Y-2043836D01*
X1157325Y-2036673D01*
X1159510Y-2028952D01*
X1160322Y-2020519D01*
X1160322Y-1759559D01*
X1161084Y-1755648D01*
X1163269Y-1752396D01*
X1167079Y-1748536D01*
X1170178Y-1743659D01*
X1172108Y-1738172D01*
X1172718Y-1732381D01*
X1173784Y-1728825D01*
X1176070Y-1725930D01*
X1179220Y-1723999D01*
X1182827Y-1723339D01*
X1364691Y-1723339D01*
X1368602Y-1724101D01*
X1371904Y-1726336D01*
X1373276Y-1727707D01*
X1378153Y-1730806D01*
X1383639Y-1732686D01*
X1389938Y-1733397D01*
X1478838Y-1733397D01*
X1485138Y-1732686D01*
X1490624Y-1730806D01*
X1495501Y-1727707D01*
X1502156Y-1720646D01*
X1505102Y-1718970D01*
X1508455Y-1718411D01*
X1532280Y-1718411D01*
X1536903Y-1718208D01*
X1541322Y-1717649D01*
X1545640Y-1716684D01*
X1549908Y-1715363D01*
X1554022Y-1713636D01*
X1557934Y-1711604D01*
X1561693Y-1709216D01*
X1565097Y-1706575D01*
X1572564Y-1699412D01*
X1576324Y-1697177D01*
X1580692Y-1696669D01*
X1584807Y-1698091D01*
X1588008Y-1701088D01*
X1589633Y-1705152D01*
X1589379Y-1709572D01*
X1587398Y-1716532D01*
X1586534Y-1725422D01*
X1586534Y-2474569D01*
X1587398Y-2483459D01*
X1589684Y-2491587D01*
X1593443Y-2499207D01*
X1598574Y-2505964D01*
X1604822Y-2511653D01*
X1612036Y-2516124D01*
X1619910Y-2519172D01*
X1628241Y-2520696D01*
X1636674Y-2520696D01*
X1645005Y-2519172D01*
X1652879Y-2516124D01*
X1659636Y-2511958D01*
X1663090Y-2510586D01*
X1666849Y-2510586D01*
X1670304Y-2511958D01*
X1677060Y-2516124D01*
X1681124Y-2517698D01*
X1681124Y-2460701D01*
X1679092Y-2457500D01*
X1678381Y-2453741D01*
X1678381Y-2386330D01*
X1679092Y-2382621D01*
X1681124Y-2379421D01*
X1681124Y-2316886D01*
X1679092Y-2313635D01*
X1678381Y-2309926D01*
X1678381Y-1890064D01*
X1679346Y-1885746D01*
X1682038Y-1882292D01*
X1686001Y-1880260D01*
X1690420Y-1880107D01*
X1693265Y-1880616D01*
X1701698Y-1880616D01*
X1706270Y-1880158D01*
X1708962Y-1880819D01*
X1717497Y-1884121D01*
X1725828Y-1885696D01*
X1734261Y-1885696D01*
X1742592Y-1884121D01*
X1751075Y-1880819D01*
X1753819Y-1880209D01*
X1758289Y-1880616D01*
X1766722Y-1880616D01*
X1775053Y-1879092D01*
X1781403Y-1876602D01*
X1785010Y-1875942D01*
X1788617Y-1876552D01*
X1791766Y-1878431D01*
X1794052Y-1881276D01*
X1795475Y-1883968D01*
X1800606Y-1890217D01*
X2018639Y-2108250D01*
X2020824Y-2111552D01*
X2021586Y-2115413D01*
X2021586Y-2159457D01*
X2022297Y-2165756D01*
X2024227Y-2171242D01*
X2027326Y-2176119D01*
X2031390Y-2180234D01*
X2036318Y-2183282D01*
X2041753Y-2185212D01*
X2048103Y-2185924D01*
X2101951Y-2185924D01*
X2105761Y-2185466D01*
X2109622Y-2185822D01*
X2113127Y-2187549D01*
X2115667Y-2190445D01*
X2116937Y-2194102D01*
X2116785Y-2198014D01*
X2115159Y-2201519D01*
X2112314Y-2204212D01*
X2108301Y-2206701D01*
X2104237Y-2210765D01*
X2101138Y-2215692D01*
X2099208Y-2221128D01*
X2098497Y-2227478D01*
X2098497Y-2312720D01*
X2099208Y-2319070D01*
X2101138Y-2324506D01*
X2104237Y-2329434D01*
X2108301Y-2333498D01*
X2113229Y-2336596D01*
X2118664Y-2338476D01*
X2125014Y-2339187D01*
X2181656Y-2339187D01*
X2185568Y-2340000D01*
X2188819Y-2342184D01*
X2191054Y-2345486D01*
X2191816Y-2349398D01*
X2191054Y-2353259D01*
X2188819Y-2356561D01*
X2166924Y-2378405D01*
X2163622Y-2380589D01*
X2159762Y-2381351D01*
X1883613Y-2381351D01*
X1879701Y-2380589D01*
X1876399Y-2378354D01*
X1874215Y-2375103D01*
X1873453Y-2371191D01*
X1873453Y-2365502D01*
X1872640Y-2356612D01*
X1870303Y-2348484D01*
X1866544Y-2340914D01*
X1861413Y-2334158D01*
X1855165Y-2328418D01*
X1847951Y-2323998D01*
X1840077Y-2320950D01*
X1831746Y-2319375D01*
X1823313Y-2319375D01*
X1814982Y-2320950D01*
X1807108Y-2323998D01*
X1800352Y-2328164D01*
X1796897Y-2329484D01*
X1793138Y-2329484D01*
X1789684Y-2328164D01*
X1782927Y-2323998D01*
X1778863Y-2322423D01*
X1778863Y-2379370D01*
X1780895Y-2382621D01*
X1781606Y-2386330D01*
X1781606Y-2453741D01*
X1780895Y-2457500D01*
X1778863Y-2460701D01*
X1778863Y-2517698D01*
X1782927Y-2516124D01*
X1789684Y-2511958D01*
X1793138Y-2510586D01*
X1796897Y-2510586D01*
X1800352Y-2511958D01*
X1807108Y-2516124D01*
X1814982Y-2519172D01*
X1823313Y-2520696D01*
X1831746Y-2520696D01*
X1840077Y-2519172D01*
X1847951Y-2516124D01*
X1855165Y-2511653D01*
X1861413Y-2505964D01*
X1866544Y-2499207D01*
X1870303Y-2491587D01*
X1872640Y-2483459D01*
X1873453Y-2474569D01*
X1873453Y-2468727D01*
X1874215Y-2464816D01*
X1876399Y-2461564D01*
X1879701Y-2459329D01*
X1883613Y-2458567D01*
X2179370Y-2458567D01*
X2187295Y-2457805D01*
X2194560Y-2455621D01*
X2201214Y-2452065D01*
X2207463Y-2446985D01*
X2266950Y-2387701D01*
X2272080Y-2381504D01*
X2275687Y-2374849D01*
X2277872Y-2367635D01*
X2278684Y-2359609D01*
X2278684Y-2349347D01*
X2279446Y-2345486D01*
X2281682Y-2342184D01*
X2284933Y-2340000D01*
X2288895Y-2339187D01*
X2288895Y-2298039D01*
X2284933Y-2297277D01*
X2281682Y-2295093D01*
X2279446Y-2291791D01*
X2278684Y-2287879D01*
X2278684Y-2252319D01*
X2279446Y-2248408D01*
X2281682Y-2245106D01*
X2284933Y-2242921D01*
X2288895Y-2242159D01*
X2288895Y-2199843D01*
X2289505Y-2196388D01*
X2291232Y-2193340D01*
X2296109Y-2187498D01*
X2298141Y-2185619D01*
X2303729Y-2183282D01*
X2308606Y-2180234D01*
X2312720Y-2176119D01*
X2315768Y-2171242D01*
X2317699Y-2165756D01*
X2318410Y-2159457D01*
X2318410Y-2071065D01*
X2319172Y-2067204D01*
X2321356Y-2063902D01*
X2324658Y-2061667D01*
X2328570Y-2060905D01*
X2596083Y-2060905D01*
X2599436Y-2061464D01*
X2602433Y-2063140D01*
X2604871Y-2065985D01*
X2608986Y-2070100D01*
X2613863Y-2073198D01*
X2619349Y-2075078D01*
X2625648Y-2075789D01*
X2659786Y-2075789D01*
X2663698Y-2076551D01*
X2666949Y-2078786D01*
X2750820Y-2162606D01*
X2753004Y-2165908D01*
X2753766Y-2169820D01*
X2753004Y-2173681D01*
X2750820Y-2176983D01*
X2746298Y-2181504D01*
X2743200Y-2186381D01*
X2741320Y-2191867D01*
X2740609Y-2198166D01*
X2740609Y-2260549D01*
X2741472Y-2269134D01*
X2741422Y-2272030D01*
X2740609Y-2279446D01*
X2740609Y-2288438D01*
X2796895Y-2288438D01*
X2799384Y-2287371D01*
X2802077Y-2287016D01*
X2857957Y-2287016D01*
X2860598Y-2287371D01*
X2863088Y-2288438D01*
X2919425Y-2288438D01*
X2919425Y-2279446D01*
X2918510Y-2270861D01*
X2918561Y-2268016D01*
X2919425Y-2260549D01*
X2919425Y-2198166D01*
X2918714Y-2191867D01*
X2916783Y-2186381D01*
X2913684Y-2181504D01*
X2909620Y-2177389D01*
X2904693Y-2174341D01*
X2899257Y-2172411D01*
X2892907Y-2171700D01*
X2890316Y-2171700D01*
X2886659Y-2171039D01*
X2883458Y-2169058D01*
X2881223Y-2166061D01*
X2879140Y-2156612D01*
X2877820Y-2152396D01*
X2876143Y-2148281D01*
X2874060Y-2144369D01*
X2871673Y-2140610D01*
X2868980Y-2137105D01*
X2865831Y-2133650D01*
X2743962Y-2011781D01*
X2741777Y-2008479D01*
X2741015Y-2004618D01*
X2741015Y-1970481D01*
X2740304Y-1964131D01*
X2738374Y-1958695D01*
X2735326Y-1953768D01*
X2731211Y-1949704D01*
X2729331Y-1948484D01*
X2726385Y-1945690D01*
X2724759Y-1941931D01*
X2724759Y-1937867D01*
X2726385Y-1934108D01*
X2729331Y-1931314D01*
X2731211Y-1930095D01*
X2735326Y-1926031D01*
X2738374Y-1921103D01*
X2740304Y-1915668D01*
X2741015Y-1909318D01*
X2741015Y-1830476D01*
X2740304Y-1824177D01*
X2738374Y-1818690D01*
X2735326Y-1813814D01*
X2731211Y-1809699D01*
X2725674Y-1806193D01*
X2723134Y-1803958D01*
X2721457Y-1800961D01*
X2720898Y-1797608D01*
X2720898Y-1710232D01*
X2720695Y-1705559D01*
X2720136Y-1701190D01*
X2719171Y-1696821D01*
X2717800Y-1692605D01*
X2716123Y-1688490D01*
X2714091Y-1684578D01*
X2711704Y-1680819D01*
X2708960Y-1677263D01*
X2705811Y-1673860D01*
X2606141Y-1574139D01*
X2602687Y-1570990D01*
X2599182Y-1568297D01*
X2595422Y-1565910D01*
X2591511Y-1563878D01*
X2587396Y-1562150D01*
X2583180Y-1560830D01*
X2578811Y-1559864D01*
X2574442Y-1559306D01*
X2569768Y-1559102D01*
X2396744Y-1559102D01*
X2393391Y-1558544D01*
X2390444Y-1556867D01*
X2388158Y-1554327D01*
X2385822Y-1550619D01*
X2378456Y-1543812D01*
X2376830Y-1540814D01*
X2376220Y-1537462D01*
X2376220Y-1125575D01*
X2376017Y-1120902D01*
X2375458Y-1116482D01*
X2374493Y-1112164D01*
X2373172Y-1107948D01*
X2371445Y-1103833D01*
X2369413Y-1099870D01*
X2367026Y-1096162D01*
X2364333Y-1092606D01*
X2361184Y-1089202D01*
X2167178Y-895146D01*
X2163724Y-891997D01*
X2160219Y-889304D01*
X2156460Y-886917D01*
X2152497Y-884885D01*
X2148433Y-883158D01*
X2144166Y-881837D01*
X2140762Y-881075D01*
X2136952Y-879348D01*
X2134158Y-876198D01*
X2132888Y-872185D01*
X2133346Y-868019D01*
X2135428Y-864362D01*
X2138832Y-861872D01*
X2142998Y-861009D01*
X2625140Y-861009D01*
X2627833Y-861364D01*
X2630373Y-862482D01*
X2640787Y-868781D01*
X2654706Y-875030D01*
X2669133Y-879551D01*
X2684119Y-882294D01*
X2699308Y-883208D01*
X2714447Y-882294D01*
X2729433Y-879551D01*
X2743860Y-875030D01*
X2757779Y-868781D01*
X2770784Y-860907D01*
X2782773Y-851509D01*
X2793492Y-840790D01*
X2802890Y-828802D01*
X2810764Y-815797D01*
X2817012Y-801928D01*
X2821533Y-787450D01*
X2824276Y-772464D01*
X2825191Y-757326D01*
X2824276Y-742137D01*
X2821533Y-727151D01*
X2817012Y-712673D01*
X2810764Y-698804D01*
X2802890Y-685800D01*
X2793492Y-673811D01*
X2782773Y-663092D01*
X2770784Y-653694D01*
X2757779Y-645820D01*
X2743911Y-639572D01*
X2729433Y-635050D01*
X2714447Y-632307D01*
X2699308Y-631393D01*
X2684119Y-632307D01*
X2669133Y-635050D01*
X2654655Y-639572D01*
X2640787Y-645820D01*
X2627782Y-653694D01*
X2615793Y-663092D01*
X2605074Y-673811D01*
X2595676Y-685800D01*
X2587802Y-698804D01*
X2581554Y-712673D01*
X2577033Y-727151D01*
X2574290Y-742137D01*
X2573832Y-749655D01*
X2572918Y-753364D01*
X2570683Y-756462D01*
X2567482Y-758494D01*
X2563723Y-759206D01*
X1129487Y-759206D01*
X1125575Y-758444D01*
X1122324Y-756208D01*
X928878Y-562813D01*
X926693Y-559511D01*
X925931Y-555650D01*
X925931Y-471322D01*
X926490Y-467969D01*
X928116Y-464972D01*
X930656Y-462686D01*
X936142Y-459282D01*
X940206Y-455168D01*
X943305Y-450291D01*
X945184Y-444804D01*
X945896Y-438505D01*
X945896Y-239623D01*
X945184Y-233324D01*
X943305Y-227888D01*
X940206Y-222961D01*
X936142Y-218897D01*
X931214Y-215798D01*
X925779Y-213867D01*
X919429Y-213156D01*
X861517Y-213156D01*
X857758Y-212445D01*
X854557Y-210362D01*
X852322Y-207264D01*
X851408Y-203555D01*
X851916Y-199745D01*
X853795Y-196392D01*
X855319Y-194665D01*
X860907Y-185521D01*
X865022Y-175564D01*
X867511Y-165150D01*
X868375Y-154482D01*
X867511Y-143764D01*
X865022Y-133350D01*
X860907Y-123393D01*
X855319Y-114249D01*
X848360Y-106121D01*
X840181Y-99161D01*
X831037Y-93522D01*
X821131Y-89408D01*
X810717Y-86918D01*
X799998Y-86106D01*
X789279Y-86918D01*
X778865Y-89408D01*
X768959Y-93522D01*
X759815Y-99161D01*
X751636Y-106121D01*
X744677Y-114249D01*
X739089Y-123393D01*
X734974Y-133350D01*
X732485Y-143764D01*
X731621Y-154482D01*
X732485Y-165150D01*
X734974Y-175564D01*
X739089Y-185521D01*
X744677Y-194665D01*
X746201Y-196392D01*
X748080Y-199745D01*
X748588Y-203555D01*
X747674Y-207264D01*
X745439Y-210362D01*
X742238Y-212445D01*
X738479Y-213156D01*
X680618Y-213156D01*
X674268Y-213867D01*
X668832Y-215798D01*
X664362Y-218592D01*
X661009Y-219913D01*
X657402Y-220014D01*
X653948Y-218795D01*
X651154Y-216509D01*
X649376Y-213309D01*
X648309Y-210210D01*
X645210Y-205333D01*
X641146Y-201218D01*
X636219Y-198170D01*
X630783Y-196240D01*
X624433Y-195529D01*
X603859Y-195529D01*
X603859Y-238353D01*
X643940Y-238353D01*
X647852Y-239115D01*
X651154Y-241300D01*
X653338Y-244602D01*
X654100Y-248513D01*
X654100Y-287375D01*
X653338Y-291287D01*
X651154Y-294538D01*
X647852Y-296773D01*
X643940Y-297535D01*
X603859Y-297535D01*
X603859Y-340360D01*
X624433Y-340360D01*
X630783Y-339648D01*
X636219Y-337718D01*
X638556Y-336245D01*
X642620Y-334772D01*
X646887Y-335127D01*
X650646Y-337210D01*
X653237Y-340664D01*
X654100Y-344881D01*
X654100Y-438505D01*
X654812Y-444804D01*
X656742Y-450291D01*
X659841Y-455168D01*
X663905Y-459282D01*
X668832Y-462381D01*
X674268Y-464261D01*
X680618Y-464972D01*
X769467Y-464972D01*
X775766Y-464261D01*
X781253Y-462381D01*
X786130Y-459282D01*
X790244Y-455168D01*
X791413Y-453339D01*
X794207Y-450392D01*
X797966Y-448767D01*
X802030Y-448767D01*
X805789Y-450392D01*
X808634Y-453339D01*
X809802Y-455168D01*
X813866Y-459282D01*
X819353Y-462686D01*
X821893Y-464972D01*
X823518Y-467969D01*
X824077Y-471322D01*
X824077Y-580694D01*
X824280Y-585368D01*
X824890Y-589737D01*
X825855Y-594106D01*
X827176Y-598322D01*
X828852Y-602437D01*
X830935Y-606348D01*
X833323Y-610108D01*
X836015Y-613664D01*
X839165Y-617067D01*
X1068019Y-845972D01*
X1071473Y-849121D01*
X1074978Y-851814D01*
X1078738Y-854202D01*
X1082700Y-856234D01*
X1086764Y-857961D01*
X1091031Y-859282D01*
X1095349Y-860247D01*
X1099769Y-860806D01*
X1104392Y-861009D01*
X1206398Y-861009D01*
X1210360Y-861821D01*
X1213713Y-864108D01*
X1215847Y-867511D01*
X1216558Y-871524D01*
X1215593Y-875487D01*
X1213002Y-881024D01*
X1210970Y-883919D01*
X1208074Y-885952D01*
X1202994Y-888288D01*
X1194968Y-893927D01*
X1188008Y-900887D01*
X1182370Y-908913D01*
X1179830Y-914400D01*
X1177798Y-917295D01*
X1174902Y-919327D01*
X1169416Y-921867D01*
X1161389Y-927506D01*
X1154430Y-934466D01*
X1148791Y-942492D01*
X1145235Y-950214D01*
X1143203Y-953109D01*
X1094384Y-1001877D01*
X1091590Y-1003858D01*
X1088339Y-1004824D01*
X1081125Y-1005586D01*
X1075690Y-1007516D01*
X1070762Y-1010564D01*
X1066698Y-1014679D01*
X1063599Y-1019556D01*
X1062990Y-1021334D01*
X1060856Y-1024890D01*
X1057452Y-1027328D01*
X1053388Y-1028141D01*
X1049324Y-1027328D01*
X1045921Y-1024890D01*
X1043787Y-1021334D01*
X1043178Y-1019556D01*
X1040079Y-1014679D01*
X1036269Y-1010818D01*
X1034084Y-1007567D01*
X1033322Y-1003757D01*
X1033271Y-998423D01*
X1032103Y-990244D01*
X1029563Y-982624D01*
X1025702Y-975614D01*
X1020267Y-969111D01*
X919581Y-868171D01*
X912876Y-863142D01*
X905713Y-859586D01*
X898042Y-857402D01*
X889609Y-856640D01*
X318414Y-856640D01*
X310184Y-857808D01*
X302564Y-860348D01*
X295605Y-864260D01*
X289052Y-869645D01*
X218135Y-940612D01*
X213106Y-947318D01*
X209550Y-954481D01*
X207365Y-962152D01*
X206603Y-970584D01*
X206603Y-1621688D01*
X207771Y-1629968D01*
X210261Y-1637538D01*
X214172Y-1644548D01*
X219557Y-1651050D01*
X310134Y-1742033D01*
X312318Y-1745335D01*
X313080Y-1749196D01*
X313080Y-1864410D01*
X313690Y-1869948D01*
X313690Y-1872589D01*
X312928Y-1875078D01*
X310591Y-1880666D01*
X309270Y-1886762D01*
X309118Y-1890268D01*
X309118Y-1989734D01*
X309778Y-1996439D01*
X310591Y-1999386D01*
X312928Y-2004923D01*
X313639Y-2007463D01*
X313690Y-2010054D01*
X313080Y-2015591D01*
X313080Y-2162911D01*
X313791Y-2169261D01*
X315722Y-2174697D01*
X318770Y-2179624D01*
X322884Y-2183688D01*
X327761Y-2186787D01*
X333248Y-2188718D01*
X339547Y-2189429D01*
X378561Y-2189429D01*
X382422Y-2190191D01*
X385724Y-2192375D01*
X387959Y-2195677D01*
X388721Y-2199589D01*
X388721Y-2318867D01*
X387959Y-2322779D01*
X385724Y-2326081D01*
X382422Y-2328265D01*
X378561Y-2329027D01*
X372313Y-2329027D01*
X366014Y-2329738D01*
X360527Y-2331669D01*
X355650Y-2334768D01*
X351536Y-2338832D01*
X348437Y-2343759D01*
X346557Y-2349195D01*
X345846Y-2355545D01*
X345846Y-2524506D01*
X346557Y-2530805D01*
X348437Y-2536291D01*
X351536Y-2541168D01*
X355650Y-2545283D01*
X360527Y-2548331D01*
X366014Y-2550261D01*
G37*
G36*
X679958Y-1636064D02*
G01*
X714552Y-1636064D01*
X714552Y-1586534D01*
X706475Y-1586534D01*
X700125Y-1587246D01*
X694690Y-1589176D01*
X689762Y-1592224D01*
X685698Y-1596339D01*
X682599Y-1601216D01*
X680669Y-1606702D01*
X679958Y-1613001D01*
G37*
G36*
X706475Y-1758340D02*
G01*
X714552Y-1758340D01*
X714552Y-1708810D01*
X679958Y-1708810D01*
X679958Y-1731873D01*
X680669Y-1738172D01*
X682599Y-1743659D01*
X685698Y-1748536D01*
X689762Y-1752650D01*
X694690Y-1755698D01*
X700125Y-1757629D01*
G37*

%LPD*%
G36*
X1189075Y-1621536D02*
G01*
X1184706Y-1620520D01*
X1181150Y-1617776D01*
X1179169Y-1613763D01*
X1179118Y-1609242D01*
X1180998Y-1605178D01*
X1183995Y-1601317D01*
X1186383Y-1597558D01*
X1188415Y-1593596D01*
X1190142Y-1589532D01*
X1191463Y-1585264D01*
X1192428Y-1580946D01*
X1192987Y-1576527D01*
X1193190Y-1571904D01*
X1193190Y-1242110D01*
X1192987Y-1237488D01*
X1192428Y-1233068D01*
X1191463Y-1228750D01*
X1190142Y-1224483D01*
X1188415Y-1220419D01*
X1186383Y-1216456D01*
X1183995Y-1212697D01*
X1181303Y-1209192D01*
X1178153Y-1205738D01*
X1159967Y-1187551D01*
X1157884Y-1184605D01*
X1156970Y-1181049D01*
X1157376Y-1177442D01*
X1159052Y-1174242D01*
X1163015Y-1170990D01*
X1167079Y-1166876D01*
X1170178Y-1161999D01*
X1172108Y-1156512D01*
X1172718Y-1150721D01*
X1173784Y-1147165D01*
X1176070Y-1144270D01*
X1179220Y-1142339D01*
X1182827Y-1141679D01*
X1353312Y-1141679D01*
X1357223Y-1142441D01*
X1360525Y-1144676D01*
X1362710Y-1147978D01*
X1363472Y-1151839D01*
X1363472Y-1185926D01*
X1364183Y-1192276D01*
X1366113Y-1197711D01*
X1369161Y-1202639D01*
X1373276Y-1206703D01*
X1375156Y-1207922D01*
X1378102Y-1210716D01*
X1379728Y-1214475D01*
X1379728Y-1218539D01*
X1378102Y-1222298D01*
X1375156Y-1225092D01*
X1373276Y-1226312D01*
X1369161Y-1230376D01*
X1366113Y-1235303D01*
X1364183Y-1240739D01*
X1363472Y-1247089D01*
X1363472Y-1260144D01*
X1405534Y-1260144D01*
X1405534Y-1222603D01*
X1406296Y-1218692D01*
X1408531Y-1215390D01*
X1411833Y-1213205D01*
X1415694Y-1212443D01*
X1453083Y-1212443D01*
X1456944Y-1213205D01*
X1460246Y-1215390D01*
X1462481Y-1218692D01*
X1463243Y-1222603D01*
X1463243Y-1260144D01*
X1505305Y-1260144D01*
X1505305Y-1247089D01*
X1504594Y-1240739D01*
X1502664Y-1235303D01*
X1499616Y-1230376D01*
X1495501Y-1226312D01*
X1493621Y-1225092D01*
X1490675Y-1222298D01*
X1489049Y-1218539D01*
X1489049Y-1214475D01*
X1490675Y-1210716D01*
X1493621Y-1207922D01*
X1495501Y-1206703D01*
X1499616Y-1202639D01*
X1502664Y-1197711D01*
X1504594Y-1192276D01*
X1505305Y-1185926D01*
X1505305Y-1107084D01*
X1504594Y-1100785D01*
X1502664Y-1095298D01*
X1499616Y-1090422D01*
X1495501Y-1086307D01*
X1490624Y-1083208D01*
X1485138Y-1081328D01*
X1478838Y-1080617D01*
X1444701Y-1080617D01*
X1440789Y-1079855D01*
X1437487Y-1077620D01*
X1429105Y-1069238D01*
X1426921Y-1065936D01*
X1426159Y-1062075D01*
X1426921Y-1058164D01*
X1429105Y-1054862D01*
X1432407Y-1052677D01*
X1436319Y-1051915D01*
X1538935Y-1051915D01*
X1542796Y-1052677D01*
X1546098Y-1054862D01*
X1548333Y-1058164D01*
X1549095Y-1062075D01*
X1549095Y-1574698D01*
X1548333Y-1578610D01*
X1546098Y-1581912D01*
X1515160Y-1612849D01*
X1511452Y-1615186D01*
X1507083Y-1615744D01*
X1502867Y-1614424D01*
X1495501Y-1607312D01*
X1493621Y-1606092D01*
X1490675Y-1603298D01*
X1489049Y-1599539D01*
X1489049Y-1595475D01*
X1490675Y-1591716D01*
X1493621Y-1588922D01*
X1495501Y-1587703D01*
X1499616Y-1583639D01*
X1502664Y-1578711D01*
X1504594Y-1573276D01*
X1505305Y-1566926D01*
X1505305Y-1553870D01*
X1463243Y-1553870D01*
X1463243Y-1591411D01*
X1462481Y-1595323D01*
X1460246Y-1598625D01*
X1456944Y-1600809D01*
X1453083Y-1601571D01*
X1415694Y-1601571D01*
X1411833Y-1600809D01*
X1408531Y-1598625D01*
X1406296Y-1595323D01*
X1405534Y-1591411D01*
X1405534Y-1553870D01*
X1363472Y-1553870D01*
X1363472Y-1566926D01*
X1364183Y-1573276D01*
X1366113Y-1578711D01*
X1369161Y-1583639D01*
X1373276Y-1587703D01*
X1375156Y-1588922D01*
X1378102Y-1591716D01*
X1379728Y-1595475D01*
X1379728Y-1599539D01*
X1378102Y-1603298D01*
X1375156Y-1606092D01*
X1373276Y-1607312D01*
X1369161Y-1611376D01*
X1365808Y-1616760D01*
X1363522Y-1619300D01*
X1360525Y-1620977D01*
X1357172Y-1621536D01*
G37*

%LPC*%
G36*
X1463243Y-1501190D02*
G01*
X1505305Y-1501190D01*
X1505305Y-1488084D01*
X1504594Y-1481785D01*
X1502664Y-1476298D01*
X1499616Y-1471422D01*
X1495501Y-1467307D01*
X1490624Y-1464208D01*
X1485138Y-1462328D01*
X1478838Y-1461617D01*
X1463243Y-1461617D01*
G37*
G36*
X1363472Y-1501190D02*
G01*
X1405534Y-1501190D01*
X1405534Y-1461617D01*
X1389938Y-1461617D01*
X1383639Y-1462328D01*
X1378153Y-1464208D01*
X1373276Y-1467307D01*
X1369161Y-1471422D01*
X1366113Y-1476298D01*
X1364183Y-1481785D01*
X1363472Y-1488084D01*
G37*
G36*
X1463243Y-1352397D02*
G01*
X1478838Y-1352397D01*
X1485138Y-1351686D01*
X1490624Y-1349806D01*
X1495501Y-1346708D01*
X1499616Y-1342593D01*
X1502664Y-1337716D01*
X1504594Y-1332230D01*
X1505305Y-1325930D01*
X1505305Y-1312824D01*
X1463243Y-1312824D01*
G37*
G36*
X1389938Y-1352397D02*
G01*
X1405534Y-1352397D01*
X1405534Y-1312824D01*
X1363472Y-1312824D01*
X1363472Y-1325930D01*
X1364183Y-1332230D01*
X1366113Y-1337716D01*
X1369161Y-1342593D01*
X1373276Y-1346708D01*
X1378153Y-1349806D01*
X1383639Y-1351686D01*
G37*

%LPD*%
D10*
X1434388Y-1146497D02*
G01*
X1378661Y-1090769D01*
X1116888Y-1090769D01*
X1264150Y-904138D02*
G01*
X1116888Y-1051399D01*
X1116888Y-1090769D01*
X2670096Y-2009896D02*
G01*
X2829991Y-2169792D01*
X2829991Y-2229350D01*
X1175004Y-339082D02*
G01*
X1389921Y-553999D01*
X1459997Y-553999D01*
X1104188Y-810099D02*
G01*
X875004Y-580915D01*
X875004Y-339082D01*
X1434388Y-1667502D02*
G01*
X1429461Y-1672429D01*
X1116888Y-1672429D01*
X1755388Y-931003D02*
G01*
X2131001Y-931003D01*
X2325331Y-1125334D01*
X2325331Y-1609996D01*
X2669994Y-1869993D02*
G01*
X2669994Y-1709996D01*
X2569994Y-1609996D01*
X2325331Y-1609996D01*
X2174659Y-1609996D02*
G01*
X2169995Y-1614660D01*
X2169995Y-1829991D01*
D11*
X1827580Y-2419951D02*
G01*
X2179878Y-2419951D01*
X2240076Y-2360007D01*
X2240076Y-2189827D01*
X2264968Y-2164935D01*
X2264968Y-2110071D01*
X2169995Y-2110000D02*
G01*
X2164659Y-2115337D01*
X2164659Y-2269995D01*
X2074999Y-2110000D02*
G01*
X1827545Y-1862546D01*
X1827545Y-1779955D01*
D12*
X1632473Y-1779955D02*
G01*
X1632473Y-2420035D01*
X1739950Y-1509869D02*
G01*
X1730044Y-1509869D01*
X1697532Y-1542381D01*
X1697532Y-1779871D01*
X1762556Y-1532729D02*
G01*
X1762556Y-1779871D01*
D10*
X2074999Y-1829991D02*
G01*
X2074999Y-1944999D01*
X2139995Y-2009995D01*
X2669994Y-2009998D01*
X1116888Y-1672429D02*
G01*
X1116888Y-1597499D01*
X1142288Y-1572099D01*
X1142288Y-1241899D01*
X1116888Y-1216499D01*
X789998Y-1216499D01*
X735888Y-1162390D01*
X735888Y-1090769D01*
X1434388Y-1667502D02*
G01*
X1532491Y-1667502D01*
X1599996Y-1599996D01*
X1599996Y-810099D01*
X855319Y-1879998D02*
G01*
X862888Y-1872429D01*
X862888Y-1672429D01*
D12*
X1730044Y-1509869D02*
G01*
X1730044Y-1839996D01*
D10*
X1739996Y-1129047D02*
G01*
X1739996Y-1509996D01*
X2059990Y-1829991D01*
X2074999Y-1829991D01*
X1104188Y-810099D02*
G01*
X2646476Y-810099D01*
X2699283Y-757293D01*
D13*
X989888Y-1090769D02*
G01*
X989888Y-1000091D01*
X890066Y-900015D01*
X320090Y-900015D01*
X249986Y-970119D01*
X249986Y-1620105D01*
X419912Y-1790793D01*
X862888Y-1090769D02*
G01*
X860094Y-1087975D01*
X860094Y-1009997D01*
X819962Y-970119D01*
X469950Y-970119D01*
X419912Y-1019903D01*
X419912Y-1210657D01*
X419989Y-1509260D02*
G01*
X519262Y-1509260D01*
X579998Y-1569996D01*
X579998Y-2009995D01*
X692119Y-2122116D01*
X692119Y-2149995D01*
X1116888Y-1672429D02*
G01*
X1116888Y-2020984D01*
X987877Y-2149995D01*
X727877Y-2439995D02*
G01*
X987877Y-2179995D01*
X987877Y-2149995D01*
X419989Y-2089243D02*
G01*
X432120Y-2101375D01*
X432120Y-2439995D01*
D14*
G01*
X1175004Y-339082D03*
G01*
X875004Y-339082D03*
G01*
X725017Y-339082D03*
D15*
G01*
X570001Y-267936D03*
G01*
X570001Y-40937D03*
G01*
X1329994Y-40937D03*
G01*
X1329994Y-267936D03*
D16*
G01*
X987874Y-2149995D03*
G01*
X692122Y-2149995D03*
G01*
X727875Y-2439995D03*
G01*
X432122Y-2439995D03*
D17*
G01*
X419996Y-1509250D03*
D18*
G01*
X419989Y-1210759D03*
D17*
G01*
X419996Y-2089249D03*
D18*
G01*
X419989Y-1790743D03*
D19*
G01*
X2699283Y-757293D03*
G01*
X2699283Y-1011293D03*
D20*
G01*
X735888Y-1672429D03*
G01*
X862888Y-1672429D03*
G01*
X989888Y-1672429D03*
G01*
X1116888Y-1672429D03*
G01*
X1116888Y-1090769D03*
G01*
X989888Y-1090769D03*
G01*
X862888Y-1090769D03*
G01*
X735888Y-1090769D03*
D21*
G01*
X926388Y-1381599D03*
D22*
G01*
X1632483Y-2420028D03*
G01*
X1697507Y-2420028D03*
G01*
X1762531Y-2420028D03*
G01*
X1827555Y-2420028D03*
G01*
X1632483Y-1779948D03*
G01*
X1697507Y-1779948D03*
G01*
X1762531Y-1779948D03*
G01*
X1827555Y-1779948D03*
D23*
G01*
X2264994Y-2109995D03*
G01*
X2169998Y-2109995D03*
G01*
X2075002Y-2109995D03*
G01*
X2075002Y-1829986D03*
G01*
X2169998Y-1829986D03*
G01*
X2264994Y-1829986D03*
D24*
G01*
X1434388Y-1146497D03*
G01*
X1434388Y-1286502D03*
G01*
X1434388Y-1667502D03*
G01*
X1434388Y-1527497D03*
G01*
X2670098Y-1869889D03*
G01*
X2670098Y-2009894D03*
D25*
G01*
X855409Y-1879947D03*
G01*
X704759Y-1879947D03*
G01*
X2325307Y-1609945D03*
G01*
X2174657Y-1609945D03*
D26*
G01*
X2829991Y-2310630D03*
G01*
X2829991Y-2229350D03*
D27*
G01*
X1459992Y-945989D03*
G01*
X1459992Y-553991D03*
D28*
G01*
X2164751Y-2270091D03*
G01*
X2315401Y-2270091D03*
D29*
X340004Y-1309997D02*
G01*
X499999Y-1309997D01*
X499999Y-1409997D01*
X340004Y-1409997D01*
X340004Y-1309997D01*
X340004Y-1890006D02*
G01*
X499999Y-1890006D01*
X499999Y-1990006D01*
X340004Y-1990006D01*
X340004Y-1890006D01*
D30*
G01*
X240004Y-8559995D03*
G01*
X5359984Y-8559995D03*
G01*
X240004Y-4939987D03*
G01*
X5359984Y-4939987D03*
G01*
X5359984Y-239996D03*
G01*
X240004Y-239996D03*
D31*
G01*
X1231188Y-937099D03*
G01*
X1197610Y-970678D03*
G01*
X1264157Y-904130D03*
D32*
G01*
X926388Y-1381599D03*
D31*
G01*
X1755394Y-931003D03*
G01*
X1740001Y-1129047D03*
G01*
X1710004Y-1990006D03*
G01*
X1799996Y-1990006D03*
G01*
X1799996Y-2099988D03*
G01*
X1710004Y-2099988D03*
G01*
X1710004Y-2209995D03*
G01*
X1799996Y-2209995D03*
G01*
X1270000Y-1269992D03*
G01*
X1270000Y-1399989D03*
G01*
X1270000Y-1529986D03*
G01*
X1459992Y-931003D03*
M02*
