G04 Layer: TopPasteMaskLayer*
G04 EasyEDA v6.5.23, 2023-05-11 23:14:51*
G04 9144401c2488441e8b95ca08e647d0b0,10*
G04 Gerber Generator version 0.2*
G04 Scale: 100 percent, Rotated: No, Reflected: No *
G04 Dimensions in millimeters *
G04 leading zeros omitted , absolute positions ,4 integer and 5 decimal *
%FSLAX45Y45*%
%MOMM*%

%ADD10R,0.9000X2.0000*%
%ADD11R,1.1000X0.9300*%
%ADD12C,2.0000*%
%ADD13R,0.6000X1.2000*%
%ADD14R,3.3000X2.0000*%
%ADD15O,0.3999992X1.499997*%
%ADD16R,0.5500X1.0000*%
%ADD17R,0.9000X0.8000*%
%ADD18R,1.2700X0.6350*%
%ADD19R,1.7000X1.6000*%

%LPD*%
G36*
X937514Y-2064969D02*
G01*
X927506Y-2074925D01*
X927506Y-2111095D01*
X937514Y-2121103D01*
X958545Y-2121103D01*
X968552Y-2131060D01*
X968552Y-2168906D01*
X958545Y-2178913D01*
X937514Y-2178913D01*
X927506Y-2188921D01*
X927506Y-2225040D01*
X937514Y-2235047D01*
X1038250Y-2235047D01*
X1048258Y-2225040D01*
X1048258Y-2074925D01*
X1038250Y-2064969D01*
G37*
G36*
X641756Y-2064969D02*
G01*
X631748Y-2074925D01*
X631748Y-2225040D01*
X641756Y-2235047D01*
X742492Y-2235047D01*
X752500Y-2225040D01*
X752500Y-2188921D01*
X742492Y-2178913D01*
X721461Y-2178913D01*
X711454Y-2168906D01*
X711454Y-2131060D01*
X721461Y-2121103D01*
X742492Y-2121103D01*
X752500Y-2111095D01*
X752500Y-2074925D01*
X742492Y-2064969D01*
G37*
G36*
X677519Y-2354935D02*
G01*
X667512Y-2364943D01*
X667512Y-2401062D01*
X677519Y-2411069D01*
X698550Y-2411069D01*
X708558Y-2421077D01*
X708558Y-2458923D01*
X698550Y-2468930D01*
X677519Y-2468930D01*
X667512Y-2478938D01*
X667512Y-2515057D01*
X677519Y-2525064D01*
X778256Y-2525064D01*
X788263Y-2515057D01*
X788263Y-2364943D01*
X778256Y-2354935D01*
G37*
G36*
X381762Y-2354935D02*
G01*
X371754Y-2364943D01*
X371754Y-2515057D01*
X381762Y-2525064D01*
X482498Y-2525064D01*
X492506Y-2515057D01*
X492506Y-2478938D01*
X482498Y-2468930D01*
X461467Y-2468930D01*
X451459Y-2458923D01*
X451459Y-2421077D01*
X461467Y-2411069D01*
X482498Y-2411069D01*
X492506Y-2401062D01*
X492506Y-2364943D01*
X482498Y-2354935D01*
G37*
G36*
X348996Y-1434998D02*
G01*
X338988Y-1445006D01*
X338988Y-1573479D01*
X348996Y-1583486D01*
X490982Y-1583486D01*
X500989Y-1573479D01*
X500989Y-1445006D01*
X490982Y-1434998D01*
X457555Y-1434998D01*
X447548Y-1445006D01*
X447548Y-1475486D01*
X437540Y-1485493D01*
X402437Y-1485493D01*
X392480Y-1475486D01*
X392480Y-1445006D01*
X382473Y-1434998D01*
G37*
G36*
X348996Y-1136497D02*
G01*
X338988Y-1146505D01*
X338988Y-1274978D01*
X348996Y-1284986D01*
X382473Y-1284986D01*
X392480Y-1274978D01*
X392480Y-1244498D01*
X402437Y-1234490D01*
X437540Y-1234490D01*
X447548Y-1244498D01*
X447548Y-1274978D01*
X457555Y-1284986D01*
X490982Y-1284986D01*
X500989Y-1274978D01*
X500989Y-1146505D01*
X490982Y-1136497D01*
G37*
G36*
X348996Y-2014982D02*
G01*
X338988Y-2024989D01*
X338988Y-2153513D01*
X348996Y-2163521D01*
X490982Y-2163521D01*
X500989Y-2153513D01*
X500989Y-2024989D01*
X490982Y-2014982D01*
X457555Y-2014982D01*
X447548Y-2024989D01*
X447548Y-2055469D01*
X437540Y-2065477D01*
X402437Y-2065477D01*
X392480Y-2055469D01*
X392480Y-2024989D01*
X382473Y-2014982D01*
G37*
G36*
X348996Y-1716481D02*
G01*
X338988Y-1726488D01*
X338988Y-1855012D01*
X348996Y-1865020D01*
X382473Y-1865020D01*
X392480Y-1855012D01*
X392480Y-1824532D01*
X402437Y-1814525D01*
X437540Y-1814525D01*
X447548Y-1824532D01*
X447548Y-1855012D01*
X457555Y-1865020D01*
X490982Y-1865020D01*
X500989Y-1855012D01*
X500989Y-1726488D01*
X490982Y-1716481D01*
G37*
G36*
X819607Y-1834946D02*
G01*
X814578Y-1839975D01*
X814578Y-1862734D01*
X851611Y-1862734D01*
X851611Y-1895754D01*
X814578Y-1895754D01*
X814578Y-1919935D01*
X819607Y-1924964D01*
X899566Y-1924964D01*
X904595Y-1919935D01*
X904595Y-1839975D01*
X899566Y-1834946D01*
G37*
G36*
X660603Y-1834946D02*
G01*
X655574Y-1839975D01*
X655574Y-1919935D01*
X660603Y-1924964D01*
X739597Y-1924964D01*
X744575Y-1919935D01*
X744575Y-1895754D01*
X706577Y-1895754D01*
X706577Y-1862734D01*
X744575Y-1862734D01*
X744575Y-1839975D01*
X739597Y-1834946D01*
G37*
G36*
X2289505Y-1564944D02*
G01*
X2284476Y-1569974D01*
X2284476Y-1592732D01*
X2321509Y-1592732D01*
X2321509Y-1625752D01*
X2284476Y-1625752D01*
X2284476Y-1649933D01*
X2289505Y-1654962D01*
X2369464Y-1654962D01*
X2374493Y-1649933D01*
X2374493Y-1569974D01*
X2369464Y-1564944D01*
G37*
G36*
X2130501Y-1564944D02*
G01*
X2125472Y-1569974D01*
X2125472Y-1649933D01*
X2130501Y-1654962D01*
X2209495Y-1654962D01*
X2214473Y-1649933D01*
X2214473Y-1625752D01*
X2176475Y-1625752D01*
X2176475Y-1592732D01*
X2214473Y-1592732D01*
X2214473Y-1569974D01*
X2209495Y-1564944D01*
G37*
G36*
X2120595Y-2225090D02*
G01*
X2115566Y-2230069D01*
X2115566Y-2310079D01*
X2120595Y-2315108D01*
X2200554Y-2315108D01*
X2205583Y-2310079D01*
X2205583Y-2287270D01*
X2168550Y-2287270D01*
X2168550Y-2254300D01*
X2205583Y-2254300D01*
X2205583Y-2230069D01*
X2200554Y-2225090D01*
G37*
G36*
X2280564Y-2225090D02*
G01*
X2275586Y-2230069D01*
X2275586Y-2254300D01*
X2313584Y-2254300D01*
X2313584Y-2287270D01*
X2275586Y-2287270D01*
X2275586Y-2310079D01*
X2280564Y-2315108D01*
X2359558Y-2315108D01*
X2364587Y-2310079D01*
X2364587Y-2230069D01*
X2359558Y-2225090D01*
G37*
D10*
G01*
X1175004Y-339082D03*
G01*
X875004Y-339082D03*
G01*
X725017Y-339082D03*
D11*
G01*
X570001Y-267936D03*
G01*
X570001Y-40937D03*
G01*
X1329994Y-40937D03*
G01*
X1329994Y-267936D03*
D12*
G01*
X2699283Y-757293D03*
G01*
X2699283Y-1011293D03*
D13*
G01*
X735888Y-1672429D03*
G01*
X862888Y-1672429D03*
G01*
X989888Y-1672429D03*
G01*
X1116888Y-1672429D03*
G01*
X1116888Y-1090769D03*
G01*
X989888Y-1090769D03*
G01*
X862888Y-1090769D03*
G01*
X735888Y-1090769D03*
D14*
G01*
X926388Y-1381599D03*
D15*
G01*
X1632483Y-2420028D03*
G01*
X1697507Y-2420028D03*
G01*
X1762531Y-2420028D03*
G01*
X1827555Y-2420028D03*
G01*
X1632483Y-1779948D03*
G01*
X1697507Y-1779948D03*
G01*
X1762531Y-1779948D03*
G01*
X1827555Y-1779948D03*
D16*
G01*
X2264994Y-2109995D03*
G01*
X2169998Y-2109995D03*
G01*
X2075002Y-2109995D03*
G01*
X2075002Y-1829986D03*
G01*
X2169998Y-1829986D03*
G01*
X2264994Y-1829986D03*
D17*
G01*
X1434388Y-1146497D03*
G01*
X1434388Y-1286502D03*
G01*
X1434388Y-1667502D03*
G01*
X1434388Y-1527497D03*
G01*
X2670098Y-1869889D03*
G01*
X2670098Y-2009894D03*
D18*
G01*
X2829991Y-2310630D03*
G01*
X2829991Y-2229350D03*
D19*
G01*
X1459992Y-945989D03*
G01*
X1459992Y-553991D03*
M02*
